<svg xmlns="http://www.w3.org/2000/svg" width="512" height="512" viewBox="0 0 512 512">
  <!-- 背景圆形 -->
  <circle cx="256" cy="256" r="256" fill="#2196F3"/>
  
  <!-- 文件图标 -->
  <path d="M346.667 128H256c-11.782 0-21.333-9.551-21.333-21.333V21.333C234.667 9.551 225.115 0 213.333 0H128C104.771 0 85.333 19.437 85.333 42.667v426.667C85.333 492.563 104.771 512 128 512h256c23.229 0 42.667-19.437 42.667-42.667V170.667c0-11.782-9.551-21.333-21.333-21.333h-37.333C355.115 149.333 346.667 139.782 346.667 128z" fill="white" opacity="0.9"/>
  
  <!-- LPK 文字 -->
  <text x="256" y="300" font-family="Arial, sans-serif" font-size="120" font-weight="bold" text-anchor="middle" fill="#1976D2">LPK</text>
  
  <!-- 解包图标 -->
  <path d="M320 352H192c-8.832 0-16 7.168-16 16v32c0 8.832 7.168 16 16 16h128c8.832 0 16-7.168 16-16v-32c0-8.832-7.168-16-16-16z" fill="#1976D2"/>
  <path d="M256 288c8.832 0 16-7.168 16-16v-64c0-8.832-7.168-16-16-16s-16 7.168-16 16v64c0 8.832 7.168 16 16 16z" fill="#1976D2"/>
</svg>